# AST/ASF file generated using VICON BodyLanguage
# -----------------------------------------------
:version 1.10
:name VICON
:units
  mass 1.0
  length 0.45
  angle deg
:documentation
   .ast/.asf automatically generated from VICON data using
   VICON BodyBuilder and BodyLanguage model FoxedUp or BRILLIANT.MOD
:root
   order TX TY TZ RX RY RZ
   axis XYZ
   position 0 0 0  
   orientation 0 0 0 
:bonedata
  begin
     id 1 
     name lhipjoint
     direction 0.645893 -0.654526 0.392961 
     length 2.38111 
     axis 0 0 0  XYZ
  end
  begin
     id 2 
     name lfemur
     direction 0.34202 -0.939693 0  
     length 6.6822  
     axis 0 0 20  XYZ
    dof rx ry rz
    limits (-160.0 20.0)
           (-70.0 70.0)
           (-60.0 70.0)
  end
  begin
     id 3 
     name ltibia
     direction 0.34202 -0.939693 0   
     length 6.93904   
     axis 0 0 20   XYZ
    dof rx
    limits (-10.0 170.0)
  end
  begin
     id 4 
     name lfoot
     direction 0.0694967 -0.190941 0.979138   
     length 2.13616   
     axis -90 7.62852e-016 20   XYZ
    dof rx rz
    limits (-45.0 90.0)
           (-70.0 20.0)
  end
  begin
     id 5 
     name ltoes
     direction 1.535e-011 -4.2202e-011 1   
     length 1.07536   
     axis -90 7.62852e-016 20   XYZ
    dof rx
    limits (-90.0 20.0)
  end
  begin
     id 6 
     name rhipjoint
     direction -0.700219 -0.612087 0.367481   
     length 2.54621  
     axis 0 0 0  XYZ 
  end
  begin
     id 7 
     name rfemur
     direction -0.34202 -0.939693 0   
     length 6.55353   
     axis 0 0 -20   XYZ
    dof rx ry rz
    limits (-160.0 20.0)
           (-70.0 70.0)
           (-70.0 60.0)
  end
  begin
     id 8 
     name rtibia
     direction -0.34202 -0.939693 0   
     length 6.8736   
     axis 0 0 -20   XYZ
    dof rx
    limits (-10.0 170.0)
 end
 begin
     id 9 
     name rfoot
     direction -0.0679995 -0.186827 0.980037   
     length 2.1218  
     axis -90 -7.62852e-016 -20   XYZ
    dof rx rz
    limits (-45.0 90.0)
           (-20.0 70.0)
  end
  begin
     id 10 
     name rtoes
     direction -1.53589e-011 -4.21772e-011 1   
     length 1.06864   
     axis -90 -7.62852e-016 -20   XYZ
    dof rx
    limits (-90.0 20.0)
  end
  begin
     id 11 
     name lowerback
     direction -0.0416607 0.996347 -0.0745409   
     length 2.12205   
     axis 0 0 0   XYZ
    dof rx ry rz
    limits (-20.0 45.0)
           (-30.0 30.0)
           (-30.0 30.0)
  end
  begin
     id 12 
     name upperback
     direction -0.000153993 0.999276 -0.0380568   
     length 2.12759   
     axis 0 0 0   XYZ
    dof rx ry rz
    limits (-20.0 45.0)
           (-30.0 30.0)
           (-30.0 30.0)
  end
  begin
     id 13 
     name thorax
     direction 0.0187671 0.999821 -0.00241421   
     length 2.13704   
     axis 0 0 0   XYZ
    dof rx ry rz
    limits (-20.0 45.0)
           (-30.0 30.0)
           (-30.0 30.0)
  end
  begin
     id 14 
     name lowerneck
     direction 0.0268157 0.964865 0.261374   
     length 1.65253   
     axis 0 0 0   XYZ
    dof rx ry rz
    limits (-20.0 45.0)
           (-30.0 30.0)
           (-30.0 30.0)
  end
  begin
     id 15 
     name upperneck
     direction 0.00263774 0.939908 -0.341418   
     length 1.72375   
     axis 0 0 0   XYZ
    dof rx ry rz
    limits (-20.0 45.0)
           (-30.0 30.0)
           (-30.0 30.0)
  end
  begin
     id 16
     name head
     direction -0.00526001 0.989001 -0.147818  
     length 1.74878  
     axis 0 0 0   XYZ
    dof rx ry rz
    limits (-20.0 45.0)
           (-30.0 30.0)
           (-30.0 30.0)
  end
  begin
     id 17 
     name lclavicle
     direction 0.881214 0.461162 -0.103884  
     length 3.25108  
     axis 0 0 0   XYZ
    dof ry rz
    limits (-20.0 10.0)
           (0.0 20.0)
  end
  begin
     id 18 
     name lhumerus
     direction 1 -4.4899e-011 3.38092e-027   
     length 4.87408   
     axis 180 -30 -90   XYZ
    dof rx ry rz
    limits (-60.0 90.0)
           (-90.0 90.0)
           (-90.0 90.0)
  end
  begin
     id 19
     name lradius
     direction 1 -4.48931e-011 9.96288e-027   
     length 2.76729   
     axis 180 -30 -90   XYZ
    dof rx
    limits (-10.0 170.0)
  end
  begin
     id 20
     name lwrist
     direction 1 -4.4896e-011 1.50617e-026   
     length 1.38364   
     axis -9.31234e-015 90 90   XYZ
    dof ry
    limits (-180.0 0.0)
 end
  begin
     id 21 
     name lhand
     direction 1 -4.49038e-011 3.01286e-026   
     length 0.98922   
     axis -1.92217e-014 90 90   XYZ
    dof rx rz
    limits (-90.0 90.0)
           (-45.0 45.0)
  end
  begin
     id 22 
     name lfingers
     direction 1 -4.49051e-011 6.02588e-026   
     length 0.797535   
     axis -3.84436e-014 90 90   XYZ
    dof rx
    limits (0.0 90.0)
  end
  begin
     id 23
     name lthumb
     direction 0.707107 -6.34901e-011 0.707107   
     length 1.14511   
     axis -90 45 2.19363e-014   XYZ
    dof rx rz
    limits (-45.0 45.0)
           (-45.0 45.0)
  end
  begin
     id 24 
     name rclavicle
     direction -0.893894 0.441652 -0.0767889   
     length 3.29361  
     axis 0 0 0   XYZ 
    dof ry rz
    limits (-10.0 20.0)
           (-20.0 0.0)
  end
  begin
     id 25 
     name rhumerus
     direction -1 -4.48945e-011 8.0491e-028  
     length 4.71404   
     axis 180 30 90   XYZ
    dof rx ry rz
    limits (-90.0 60.0)
           (-90.0 90.0)
           (-90.0 90.0)
  end
  begin
     id 26 
     name rradius
     direction -1 -4.48986e-011 9.27795e-027   
     length 2.83468   
     axis 180 30 90   XYZ
    dof rx
    limits (-10.0 170.0)
  end
  begin
     id 27 
     name rwrist
     direction -1 -4.49029e-011 1.5064e-026   
     length 1.41734   
     axis -9.31234e-015 -90 -90   XYZ
    dof ry
    limits (-180.0 0.0)
  end
  begin
     id 28
     name rhand
     direction -1 -4.48857e-011 3.01165e-026   
     length 0.868195   
     axis -1.92217e-014 -90 -90   XYZ
    dof rx rz
    limits (-90.0 90.0)
           (-45.0 45.0)
  end
  begin
     id 29
     name rfingers
     direction -1 -4.49048e-011 6.02585e-026   
     length 0.699961   
     axis -3.84436e-014 -90 -90   XYZ
    dof rx
    limits (0.0 90.0)
  end
  begin
     id 30
     name rthumb
     direction -0.707107 -6.34854e-011 0.707107   
     length 1.00501   
     axis -90 -45 -2.19363e-014   XYZ
    dof rx rz
    limits (-45.0 45.0)
           (-45.0 45.0)
  end
:hierarchy
  begin
    root lhipjoint rhipjoint lowerback
    lhipjoint lfemur
    lfemur ltibia
    ltibia lfoot
    lfoot ltoes
    rhipjoint rfemur
    rfemur rtibia
    rtibia rfoot
    rfoot rtoes
    lowerback upperback
    upperback thorax
    thorax lowerneck lclavicle rclavicle
    lowerneck upperneck
    upperneck head
    lclavicle lhumerus
    lhumerus lradius
    lradius lwrist
    lwrist lhand lthumb
    lhand lfingers
    rclavicle rhumerus
    rhumerus rradius
    rradius rwrist
    rwrist rhand rthumb
    rhand rfingers
  end

#!OML:ASF H:\ManfredObstacles\Project 1\Capture day 2\Session 1\male.ASF
:FULLY-SPECIFIED
:DEGREES
1
root 1.27566 16.4128 31.4686 -171.642 7.12694 176.789
lowerback -5.57326 -6.40735 -5.69455
upperback 0.691054 -8.08601 -0.489879
thorax 4.54462 -4.11946 1.83614
lowerneck -25.7057 4.10178 7.81918
upperneck 44.577 10.8306 -5.09164
head 25.925 5.90206 -0.726226
rclavicle 7.53891e-014 6.36111e-015
rhumerus -79.3833 2.61126 -66.1351
rradius 79.7304
rwrist 4.10412
rhand -10.604 -3.52821
rfingers 7.12502
rthumb 15.4019 -32.9345
lclavicle 7.53891e-014 6.36111e-015
lhumerus -44.0156 -31.8514 89.8526
lradius 96.2493
lwrist -21.972
lhand -16.143 1.0379
lfingers 7.12502
lthumb 10.0622 30.7773
rfemur -43.5157 3.6224 17.9551
rtibia 31.3524
rfoot 15.8322 -9.67813
rtoes -22.4315
lfemur 2.39429 -0.965038 -29.0473
ltibia 36.5837
lfoot 26.3226 8.92305
ltoes 4.37123
2
root 1.30707 16.3932 31.1998 -171.821 7.33155 176.728
lowerback -5.16325 -6.30478 -5.88744
upperback 0.415424 -7.98019 -0.358442
thorax 4.06349 -4.06154 2.15405
lowerneck -25.6097 3.9449 7.59929
upperneck 44.8628 10.9641 -5.16241
head 26.2203 5.94536 -0.66855
rclavicle -1.99282e-014 -8.34896e-015
rhumerus -79.9902 2.8824 -65.9684
rradius 79.837
rwrist 4.11137
rhand -10.3926 -3.33528
rfingers 7.12502
rthumb 15.6056 -32.7258
lclavicle -1.99282e-014 -8.34896e-015
lhumerus -44.8319 -31.5261 90.6327
lradius 95.8407
lwrist -22.04
lhand -16.1163 0.889479
lfingers 7.12502
lthumb 10.088 30.6277
rfemur -43.1265 2.97486 18.456
rtibia 31.2976
rfoot 17.1881 -9.16648
rtoes -21.903
lfemur 2.13973 -0.409186 -29.0168
ltibia 38.4792
lfoot 26.0698 9.21274
ltoes 3.15047
3
root 1.33431 16.3551 30.9343 -172.01 7.42909 176.715
lowerback -5.6377 -6.09775 -5.65238
upperback 0.848446 -7.6603 -0.613245
thorax 4.68815 -3.91044 1.72067
lowerneck -25.3437 3.99759 7.44634
upperneck 44.4149 10.6665 -4.81823
head 25.4326 5.81582 -0.563057
rclavicle -8.55271e-014 -8.34896e-015
rhumerus -79.9653 2.13597 -66.2914
rradius 79.8735
rwrist 4.3989
rhand -10.288 -3.14085
rfingers 7.12502
rthumb 15.7062 -32.5234
lclavicle -8.55271e-014 -8.34896e-015
lhumerus -44.4288 -31.8952 90.3363
lradius 95.3526
lwrist -22.7117
lhand -15.8949 1.25032
lfingers 7.12502
lthumb 10.3015 30.978
rfemur -42.4662 2.70393 18.7414
rtibia 31.1747
rfoot 18.6228 -9.48773
rtoes -21.2163
lfemur 1.57373 0.0301388 -28.9272
ltibia 40.9936
lfoot 25.2638 9.8448
ltoes 0.711435
4
root 1.36544 16.2886 30.6806 -172.458 7.70958 176.933
lowerback -5.10095 -5.88844 -5.59186
upperback 0.892334 -7.43007 -0.537955
thorax 4.41597 -3.79697 1.84837
lowerneck -25.7538 3.99077 7.49929
upperneck 44.5333 10.6725 -4.87866
head 25.7766 5.81339 -0.585592
rclavicle 9.44227e-016 3.06128e-014
rhumerus -80.1039 2.38016 -66.6652
rradius 79.852
rwrist 4.30813
rhand -10.3941 -3.21221
rfingers 7.12502
rthumb 15.6042 -32.6028
lclavicle 9.44227e-016 3.06128e-014
lhumerus -44.8955 -31.3246 90.7109
lradius 95.0495
lwrist -22.7125
lhand -15.8662 0.947705
lfingers 7.12502
lthumb 10.3293 30.674
rfemur -41.1609 2.7186 19.1941
rtibia 31.1232
rfoot 19.7168 -8.75624
rtoes -21.7449
lfemur 1.18722 0.901744 -28.4734
ltibia 43.4541
lfoot 24.9771 10.2779
ltoes 0.80537
5
root 1.3951 16.2251 30.423 -172.819 7.9194 177.05
lowerback -4.79869 -5.69046 -5.51351
upperback 0.979616 -7.19063 -0.547455
thorax 4.30667 -3.678 1.84951
lowerneck -25.7264 3.94183 7.39974
upperneck 44.4584 10.5729 -4.83016
head 25.6384 5.76352 -0.572597
rclavicle -2.10215e-014 -1.27222e-014
rhumerus -80.2364 2.40078 -67.0212
rradius 79.8241
rwrist 4.3538
rhand -10.4311 -3.21976
rfingers 7.12502
rthumb 15.5685 -32.6131
lclavicle -2.10215e-014 -1.27222e-014
lhumerus -45.2669 -30.9877 90.979
lradius 94.7387
lwrist -22.8695
lhand -15.8001 0.887473
lfingers 7.12502
lthumb 10.393 30.6106
rfemur -40.1129 2.4085 19.6585
rtibia 31.2063
rfoot 20.0577 -7.69371
rtoes -22.2148
lfemur 0.702715 1.60398 -28.1406
ltibia 46.0287
lfoot 24.4557 10.8083
ltoes -0.0171299
